<?xml version="1.0" encoding="UTF-8" standalone="no"?>
<svg
   xmlns:dc="http://purl.org/dc/elements/1.1/"
   xmlns:cc="http://creativecommons.org/ns#"
   xmlns:rdf="http://www.w3.org/1999/02/22-rdf-syntax-ns#"
   xmlns:svg="http://www.w3.org/2000/svg"
   xmlns="http://www.w3.org/2000/svg"
   xmlns:sodipodi="http://sodipodi.sourceforge.net/DTD/sodipodi-0.dtd"
   xmlns:inkscape="http://www.inkscape.org/namespaces/inkscape"
   width="210mm"
   height="297mm"
   viewBox="0 0 210 297"
   version="1.1"
   id="svg8"
   inkscape:version="1.0 (4035a4fb49, 2020-05-01)"
   sodipodi:docname="background.svg"
   inkscape:export-filename="/home/kdsuneraavinash/Documents/university/resume/latex/background.png"
   inkscape:export-xdpi="300"
   inkscape:export-ydpi="300">
  <defs
     id="defs2" />
  <sodipodi:namedview
     id="base"
     pagecolor="#ffffff"
     bordercolor="#666666"
     borderopacity="1.0"
     inkscape:pageopacity="0.0"
     inkscape:pageshadow="2"
     inkscape:zoom="5.6"
     inkscape:cx="75.855638"
     inkscape:cy="184.93533"
     inkscape:document-units="mm"
     inkscape:current-layer="layer1"
     inkscape:document-rotation="0"
     showgrid="false"
     inkscape:window-width="1920"
     inkscape:window-height="1050"
     inkscape:window-x="0"
     inkscape:window-y="0"
     inkscape:window-maximized="0" />
  <metadata
     id="metadata5">
    <rdf:RDF>
      <cc:Work
         rdf:about="">
        <dc:format>image/svg+xml</dc:format>
        <dc:type
           rdf:resource="http://purl.org/dc/dcmitype/StillImage" />
        <dc:title />
      </cc:Work>
    </rdf:RDF>
  </metadata>
  <g
     inkscape:label="Layer 1"
     inkscape:groupmode="layer"
     id="layer1">
    <rect
       sodipodi:insensitive="true"
       style="fill:#262f36;fill-opacity:1;fill-rule:evenodd;stroke:none;stroke-width:0;stroke-miterlimit:4;stroke-dasharray:none"
       id="rect18"
       width="31.911987"
       height="298.85431"
       x="-0.48165512"
       y="-0.62074429"
       inkscape:export-xdpi="96"
       inkscape:export-ydpi="96" />
    <path
       style="fill:#ffffff;stroke-width:0.36964"
       fill="#000000"
       d="m 28.186876,82.235461 -3.020907,-1.2212 c -0.03457,-0.01385 -0.07182,-0.01385 -0.106075,0 l -3.020909,1.2212 c -0.06848,0.02768 -0.114801,0.105438 -0.114801,0.19295 0,0.08752 0.04633,0.165269 0.114801,0.192949 l 0.892175,0.360661 v 1.074657 c 0,0.05414 0.01779,0.105836 0.04901,0.144098 0.02954,0.03582 0.736431,0.873564 2.132762,0.873564 0.507847,0 0.981459,-0.110716 1.408078,-0.329317 0.08526,-0.04356 0.125201,-0.163234 0.08929,-0.266629 -0.03592,-0.103395 -0.134598,-0.151836 -0.219854,-0.108276 -0.384998,0.197428 -0.814637,0.297159 -1.277173,0.297159 -0.652852,0 -1.133176,-0.205161 -1.42117,-0.376943 -0.21314,-0.127405 -0.355794,-0.256046 -0.424938,-0.325246 v -0.847107 l 1.793074,0.724987 c 0.01712,0.0069 0.03524,0.01055 0.05303,0.01055 0.01779,0 0.03592,-0.0037 0.05303,-0.01055 l 1.793077,-0.724987 v 0.363103 c -0.195351,0.08385 -0.335657,0.310187 -0.335657,0.575593 0,0.248719 0.123184,0.462837 0.299406,0.55809 l -0.29436,1.427989 c -0.01243,0.06065 -0.0014,0.125373 0.03055,0.174633 0.03189,0.04927 0.08056,0.07815 0.132248,0.07815 h 0.671311 c 0.05169,0 0.100362,-0.02892 0.132249,-0.07815 0.03188,-0.04927 0.04298,-0.113977 0.03055,-0.174633 l -0.294369,-1.427985 c 0.176219,-0.09525 0.299406,-0.30937 0.299406,-0.558089 0,-0.265407 -0.140305,-0.491736 -0.335657,-0.575593 v -0.499064 l 0.892167,-0.360661 c 0.06848,-0.02768 0.114801,-0.105438 0.114801,-0.192949 0,-0.08753 -0.04632,-0.165268 -0.114801,-0.19295 z m -1.060003,1.617683 c 0.09264,0 0.167828,0.09119 0.167828,0.203534 0,0.112362 -0.07518,0.203534 -0.167828,0.203534 -0.09264,0 -0.167829,-0.09118 -0.167829,-0.203534 0,-0.112339 0.07518,-0.203534 0.167829,-0.203534 z m -0.120837,2.035333 0.120837,-0.585363 0.120835,0.585363 h -0.241335 z m 0.107413,-3.262232 -1.972653,-0.398924 c -0.09164,-0.01832 -0.177899,0.05658 -0.193002,0.167304 -0.01511,0.110728 0.04666,0.215746 0.137955,0.234063 l 1.347324,0.272328 -1.319802,0.533664 -2.490233,-1.006677 2.490233,-1.006674 2.490235,1.006674 -0.489722,0.197835 z"
       id="path986" />
    <g
       style="fill:#ffffff"
       inkscape:transform-center-y="-0.031775368"
       inkscape:transform-center-x="-0.26057413"
       transform="matrix(0.27850877,0,0,0.26458333,22.932168,49.241405)"
       id="g1016">
      <path
         style="fill:#ffffff"
         fill="#000000"
         d="M 9.5,11 C 6.467,11 4,8.533 4,5.5 4,2.467 6.467,0 9.5,0 12.533,0 15,2.467 15,5.5 15,8.533 12.533,11 9.5,11 Z M 9.5,1 C 7.019,1 5,3.019 5,5.5 5,7.981 7.019,10 9.5,10 11.981,10 14,7.981 14,5.5 14,3.019 11.981,1 9.5,1 Z"
         id="path1002" />
      <path
         style="fill:#ffffff"
         fill="#000000"
         d="M 17.5,20 H 1.5 C 0.673,20 0,19.327 0,18.5 0,18.432 0.014,16.815 1.225,15.2 1.93,14.26 2.895,13.513 4.094,12.981 5.558,12.33 7.377,12 9.5,12 c 2.123,0 3.942,0.33 5.406,0.981 1.199,0.533 2.164,1.279 2.869,2.219 1.211,1.615 1.225,3.232 1.225,3.3 0,0.827 -0.673,1.5 -1.5,1.5 z m -8,-7 C 6.013,13 3.44,13.953 2.059,15.756 1.024,17.107 1.001,18.488 1,18.502 1,18.776 1.224,19 1.5,19 h 16 C 17.776,19 18,18.776 18,18.5 18,18.488 17.977,17.107 16.941,15.756 15.559,13.953 12.986,13 9.5,13 Z"
         id="path1004" />
    </g>
    <g
       style="fill:#ffffff"
       transform="matrix(0.2785161,0,0,0.40618523,22.021516,165.71535)"
       id="g1035">
      <path
         style="fill:#ffffff"
         fill="#000000"
         d="M 5,15 C 4.872,15 4.744,14.951 4.646,14.854 l -4,-4 c -0.195,-0.195 -0.195,-0.512 0,-0.707 l 4,-4 c 0.195,-0.195 0.512,-0.195 0.707,0 0.195,0.195 0.195,0.512 0,0.707 L 1.707,10.5 5.353,14.146 c 0.195,0.195 0.195,0.512 0,0.707 -0.098,0.098 -0.226,0.146 -0.354,0.146 z"
         id="path1018" />
      <path
         style="fill:#ffffff"
         fill="#000000"
         d="m 15,15 c -0.128,0 -0.256,-0.049 -0.354,-0.146 -0.195,-0.195 -0.195,-0.512 0,-0.707 l 3.646,-3.646 -3.646,-3.646 c -0.195,-0.195 -0.195,-0.512 0,-0.707 0.195,-0.195 0.512,-0.195 0.707,0 l 4,4 c 0.195,0.195 0.195,0.512 0,0.707 l -4,4 c -0.098,0.098 -0.226,0.146 -0.354,0.146 z"
         id="path1020" />
      <path
         style="fill:#ffffff"
         fill="#000000"
         d="M 7.5,15 C 7.409,15 7.318,14.975 7.235,14.924 7.001,14.778 6.93,14.469 7.076,14.235 l 5,-8 c 0.146,-0.234 0.455,-0.305 0.689,-0.159 0.234,0.146 0.305,0.455 0.159,0.689 l -5,8 C 7.829,14.917 7.666,15 7.5,15 Z"
         id="path1022" />
    </g>
    <g
       style="fill:#ffffff"
       transform="matrix(0.26458333,0,0,0.35277778,22.955699,118.37947)"
       id="g1051">
      <path
         style="fill:#ffffff"
         fill="#000000"
         d="m 3.5,14 h 13 c 0.827,0 1.5,-0.673 1.5,-1.5 v -8 C 18,3.673 17.327,3 16.5,3 H 3.5 C 2.673,3 2,3.673 2,4.5 v 8 C 2,13.327 2.673,14 3.5,14 Z M 3,4.5 C 3,4.224 3.224,4 3.5,4 h 13 C 16.776,4 17,4.224 17,4.5 v 8 C 17,12.776 16.776,13 16.5,13 H 3.5 C 3.224,13 3,12.776 3,12.5 Z"
         id="path1037" />
      <path
         style="fill:#ffffff"
         fill="#000000"
         d="M 19.5,15 H 0.5 C 0.224,15 0,15.224 0,15.5 v 1 C 0,17.327 0.673,18 1.5,18 h 17 c 0.827,0 1.5,-0.673 1.5,-1.5 v -1 C 20,15.224 19.776,15 19.5,15 Z m -1,2 H 1.5 C 1.224,17 1,16.776 1,16.5 V 16 h 18 v 0.5 c 0,0.276 -0.224,0.5 -0.5,0.5 z"
         id="path1039" />
    </g>
    <g
       style="fill:#ffffff"
       transform="matrix(0.27850877,0,0,0.27850877,21.679141,194.20768)"
       id="g1073">
      <path
         style="fill:#ffffff"
         fill="#000000"
         d="M 17.5,20 H 1.5 C 0.673,20 0,19.327 0,18.5 V 2.5 C 0,1.673 0.673,1 1.5,1 h 16 C 18.327,1 19,1.673 19,2.5 v 16 C 19,19.327 18.327,20 17.5,20 Z M 1.5,2 C 1.224,2 1,2.224 1,2.5 v 16 C 1,18.776 1.224,19 1.5,19 h 16 C 17.776,19 18,18.776 18,18.5 V 2.5 C 18,2.224 17.776,2 17.5,2 Z"
         id="path1053" />
      <path
         style="fill:#ffffff"
         fill="#000000"
         d="m 6.5,17 h -2 C 4.224,17 4,16.776 4,16.5 v -9 C 4,7.224 4.224,7 4.5,7 h 2 C 6.776,7 7,7.224 7,7.5 v 9 C 7,16.776 6.776,17 6.5,17 Z M 5,16 H 6 V 8 H 5 Z"
         id="path1055" />
      <path
         style="fill:#ffffff"
         fill="#000000"
         d="m 10.5,17 h -2 C 8.224,17 8,16.776 8,16.5 V 4.5 C 8,4.224 8.224,4 8.5,4 h 2 C 10.776,4 11,4.224 11,4.5 v 12 C 11,16.776 10.776,17 10.5,17 Z M 9,16 h 1 V 5 H 9 Z"
         id="path1057" />
      <path
         style="fill:#ffffff"
         fill="#000000"
         d="m 14.5,17 h -2 C 12.224,17 12,16.776 12,16.5 v -5 C 12,11.224 12.224,11 12.5,11 h 2 c 0.276,0 0.5,0.224 0.5,0.5 v 5 C 15,16.776 14.776,17 14.5,17 Z M 13,16 h 1 v -4 h -1 z"
         id="path1059" />
    </g>
  </g>
</svg>
